<svg aria-hidden="true" style="position: absolute; width: 0; height: 0; overflow: hidden;" version="1.1" xmlns="http://www.w3.org/2000/svg" xmlns:xlink="http://www.w3.org/1999/xlink">
<defs>

<symbol id="Reset" viewBox="0 -960 960 960">
	<path xmlns="http://www.w3.org/2000/svg" d="M480-160q-134 0-227-93t-93-227q0-134 93-227t227-93q69 0 132 28.5T720-690v-110h80v280H520v-80h168q-32-56-87.5-88T480-720q-100 0-170 70t-70 170q0 100 70 170t170 70q77 0 139-44t87-116h84q-28 106-114 173t-196 67Z"/>
</symbol>


<symbol id="Person_Edit" viewBox="120 -860 800 800">
	<path d="M480-240Zm-320 80v-112q0-34 17.5-62.5T224-378q62-31 126-46.5T480-440q37 0 73 4.5t72 14.5l-67 68q-20-3-39-5t-39-2q-56 0-111 13.5T260-306q-9 5-14.5 14t-5.5 20v32h240v80H160Zm400 40v-123l221-220q9-9 20-13t22-4q12 0 23 4.5t20 13.5l37 37q8 9 12.5 20t4.5 22q0 11-4 22.5T903-340L683-120H560Zm300-263-37-37 37 37ZM620-180h38l121-122-18-19-19-18-122 121v38Zm141-141-19-18 37 37-18-19ZM367-527q-47-47-47-113t47-113q47-47 113-47t113 47q47 47 47 113t-47 113q-47 47-113 47t-113-47Zm169.5-56.5Q560-607 560-640t-23.5-56.5Q513-720 480-720t-56.5 23.5Q400-673 400-640t23.5 56.5Q447-560 480-560t56.5-23.5ZM480-640Z"/>
</symbol>


<symbol id="Edit_On" viewBox="50 -910 860 860">
	<path d="M200-200h57l391-391-57-57-391 391v57Zm-80 80v-170l528-527q12-11 26.5-17t30.5-6q16 0 31 6t26 18l55 56q12 11 17.5 26t5.5 30q0 16-5.5 30.5T817-647L290-120H120Zm640-584-56-56 56 56Zm-141 85-28-29 57 57-29-28Z"/>
</symbol>

<symbol id="Edit_Off" viewBox="50 -910 860 860">
	<path d="m622-453-56-56 82-82-57-57-82 82-56-56 195-195q12-12 26.5-17.5T705-840q16 0 31 6t26 18l55 56q12 11 17.5 26t5.5 30q0 16-5.5 30.5T817-647L622-453ZM200-200h57l195-195-28-29-29-28-195 195v57ZM792-56 509-338 290-120H120v-169l219-219L56-792l57-57 736 736-57 57Zm-32-648-56-56 56 56Zm-169 56 57 57-57-57ZM424-424l-29-28 57 57-28-29Z"/>
</symbol>


<symbol id="Circle" viewBox="50 -910 860 860">
	<path d="M480-80q-83 0-156-31.5T197-197q-54-54-85.5-127T80-480q0-83 31.5-156T197-763q54-54 127-85.5T480-880q83 0 156 31.5T763-763q54 54 85.5 127T880-480q0 83-31.5 156T763-197q-54 54-127 85.5T480-80Zm0-80q134 0 227-93t93-227q0-134-93-227t-227-93q-134 0-227 93t-93 227q0 134 93 227t227 93Zm0-320Z"/>
</symbol>

<symbol id="Strike" viewBox="50 -910 860 860">
	<rect x="80" y="-520" width="800" height="80"/>
</symbol>


<symbol id="Check" viewBox="150 -810 660 660">
	<path d="M382-240 154-468l57-57 171 171 367-367 57 57-424 424Z"/>
</symbol>

<symbol id="X" viewBox="150 -810 660 660">
	<path d="m256-200-56-56 224-224-224-224 56-56 224 224 224-224 56 56-224 224 224 224-56 56-224-224-224 224Z"/>
</symbol>

<symbol id="!" viewBox="150 -810 660 660">
	<path d="M440-400v-360h80v360h-80Zm0 200v-80h80v80h-80Z"/>
</symbol>

<symbol id="?" viewBox="40 -910 890 890">
	<path d="M424-320q0-81 14.5-116.5T500-514q41-36 62.5-62.5T584-637q0-41-27.5-68T480-732q-51 0-77.5 31T365-638l-103-44q21-64 77-111t141-47q105 0 161.5 58.5T698-641q0 50-21.5 85.5T609-475q-49 47-59.5 71.5T539-320H424Zm56 240q-33 0-56.5-23.5T400-160q0-33 23.5-56.5T480-240q33 0 56.5 23.5T560-160q0 33-23.5 56.5T480-80Z"/>
</symbol>

<symbol id="Delete" viewBox="80 -910 860 860">
	<path d="m456-320 104-104 104 104 56-56-104-104 104-104-56-56-104 104-104-104-56 56 104 104-104 104 56 56Zm-96 160q-19 0-36-8.5T296-192L80-480l216-288q11-15 28-23.5t36-8.5h440q33 0 56.5 23.5T880-720v480q0 33-23.5 56.5T800-160H360ZM180-480l180 240h440v-480H360L180-480Zm400 0Z"/>
</symbol>

</defs>
</svg>
